<?xml version="1.0" encoding="UTF-8" standalone="no"?>
<!-- Created with Inkscape (http://www.inkscape.org/) -->

<svg
   xmlns:dc="http://purl.org/dc/elements/1.1/"
   xmlns:cc="http://creativecommons.org/ns#"
   xmlns:rdf="http://www.w3.org/1999/02/22-rdf-syntax-ns#"
   xmlns:svg="http://www.w3.org/2000/svg"
   xmlns="http://www.w3.org/2000/svg"
   xmlns:xlink="http://www.w3.org/1999/xlink"
   xmlns:sodipodi="http://sodipodi.sourceforge.net/DTD/sodipodi-0.dtd"
   xmlns:inkscape="http://www.inkscape.org/namespaces/inkscape"
   width="300"
   height="300"
   viewBox="0 0 79.374998 79.375005"
   version="1.1"
   id="svg8"
   inkscape:version="0.92.1 r15371"
   sodipodi:docname="2nd.svg">
  <defs
     id="defs2">
    <linearGradient
       inkscape:collect="always"
       id="linearGradient4549">
      <stop
         style="stop-color:#000000;stop-opacity:1"
         offset="0"
         id="stop4545" />
      <stop
         style="stop-color:#9d93ac;stop-opacity:1"
         offset="1"
         id="stop4547" />
    </linearGradient>
    <linearGradient
       inkscape:collect="always"
       xlink:href="#linearGradient4549"
       id="linearGradient4551"
       x1="220.21324"
       y1="431.31473"
       x2="156.38298"
       y2="357.61694"
       gradientUnits="userSpaceOnUse"
       gradientTransform="matrix(0.25995703,0,0,0.23845895,-18.943219,207.98194)" />
  </defs>
  <sodipodi:namedview
     id="base"
     pagecolor="#ffffff"
     bordercolor="#666666"
     borderopacity="1.0"
     inkscape:pageopacity="0.0"
     inkscape:pageshadow="2"
     inkscape:zoom="0.98994949"
     inkscape:cx="176.78433"
     inkscape:cy="136.42615"
     inkscape:document-units="mm"
     inkscape:current-layer="layer1"
     showgrid="false"
     units="px"
     inkscape:window-width="1366"
     inkscape:window-height="715"
     inkscape:window-x="-8"
     inkscape:window-y="-8"
     inkscape:window-maximized="1" />
  <metadata
     id="metadata5">
    <rdf:RDF>
      <cc:Work
         rdf:about="">
        <dc:format>image/svg+xml</dc:format>
        <dc:type
           rdf:resource="http://purl.org/dc/dcmitype/StillImage" />
        <dc:title></dc:title>
      </cc:Work>
    </rdf:RDF>
  </metadata>
  <g
     inkscape:label="Layer 1"
     inkscape:groupmode="layer"
     id="layer1"
     transform="translate(0,-217.62498)">
    <path
       style="opacity:1;fill:#374548;fill-opacity:1;stroke:url(#linearGradient4551);stroke-width:0.04860738;stroke-miterlimit:4;stroke-dasharray:none;stroke-opacity:1"
       d="m 33.006504,220.3258 c -1.891218,0 -3.413458,1.39635 -3.413458,3.13117 v 2.77115 c 0,1.73483 1.52224,3.13165 3.413458,3.13165 h 4.512694 c 1.891218,0 3.413966,-1.39682 3.413966,-3.13165 v -2.77115 c 0,-1.73482 -1.522748,-3.13117 -3.413966,-3.13117 z m 18.961125,9.94262 -11.034465,8.44992 v -3.56477 c 0,-2.41717 -2.121301,-4.36352 -4.756403,-4.36352 H 34.38905 c -2.635099,0 -4.7564,1.94635 -4.7564,4.36352 v 12.21823 l -10.589695,8.109 c -3.90959,2.05491 -6.940607,4.75424 -8.700437,7.84492 a 8.7920205,9.3290609 0 0 1 5.350444,8.58359 8.7920205,9.3290609 0 0 1 -3.0154,7.01731 c 3.729743,3.96879 9.766767,6.95577 16.955088,8.23195 v 1.97195 c 0,2.41718 2.121301,4.36306 4.7564,4.36306 h 1.787711 c 2.635102,0 4.756403,-1.94588 4.756403,-4.36306 v -1.4247 c 14.342393,-1.0752 25.397599,-8.75982 25.397599,-18.14523 0,-9.04842 -10.27617,-16.51528 -23.866291,-18.00365 l 27.68847,-21.20329 z M 40.933164,262.4315 a 10.233788,8.4239477 0 0 1 4.9666,7.21059 10.233788,8.4239477 0 0 1 -4.9666,7.21198 z m -11.300514,0.4187 v 13.58517 a 10.233788,8.4239477 0 0 1 -4.20044,-6.79328 10.233788,8.4239477 0 0 1 4.20044,-6.79189 z"
       id="rect4511"
       inkscape:connector-curvature="0" />
  </g>
</svg>
